<svg id="svg" version="1.1" width="1024" height="1024"
                    viewBox="339.75799560546875 377.4629211425781 348.87835693359375 297.5370788574219"
                    xmlns="http://www.w3.org/2000/svg" style="fill: rgb(255, 90, 95);">
                    <path
                        d="M507.718 378.044 C 492.279 381.873,482.956 398.016,487.384 413.249 C 489.494 420.508,496.101 427.937,503.140 430.965 C 507.334 432.769,509.708 433.126,515.420 432.809 C 531.545 431.915,541.462 421.324,541.456 405.000 C 541.453 396.977,539.785 392.463,534.502 386.185 C 529.161 379.837,516.277 375.921,507.718 378.044 M340.000 381.500 C 338.977 382.733,340.934 389.373,350.978 418.750 C 357.701 438.413,373.231 483.975,385.488 520.000 C 426.306 639.963,437.271 671.485,438.797 673.250 C 440.145 674.810,442.521 675.000,460.632 675.000 C 480.628 675.000,480.976 674.964,482.343 672.750 C 483.108 671.513,490.358 650.363,498.455 625.750 C 506.552 601.138,513.479 581.000,513.847 581.000 C 514.215 581.000,521.201 601.138,529.371 625.750 C 537.541 650.363,544.860 671.513,545.636 672.750 C 547.024 674.964,547.373 675.000,567.500 675.000 C 587.784 675.000,587.966 674.981,589.472 672.683 C 590.972 670.393,607.620 621.948,670.978 435.500 C 674.716 424.500,680.336 408.155,683.466 399.177 C 686.597 390.199,688.911 382.212,688.610 381.427 C 688.155 380.241,683.603 380.000,661.642 380.000 C 637.909 380.000,635.018 380.178,633.221 381.750 C 631.843 382.955,621.010 414.155,598.429 481.956 C 580.394 536.107,565.505 579.982,565.344 579.456 C 557.205 552.921,542.288 505.460,533.844 479.235 C 530.799 469.776,531.306 470.000,512.952 470.000 C 497.549 470.000,497.001 470.071,495.611 472.250 C 494.128 474.575,480.184 517.959,468.543 556.465 C 464.891 568.546,461.802 578.531,461.680 578.653 C 461.558 578.776,449.814 543.916,435.583 501.188 C 402.687 402.418,396.063 383.206,394.291 381.434 C 392.114 379.257,341.811 379.318,340.000 381.500 "
                        stroke="none" fillnot="black" fillnot-rule="evenodd"></path>
                </svg>